<svg width="40" height="40" viewBox="0 0 40 40" fill="none" xmlns="http://www.w3.org/2000/svg">
<rect width="40" height="40" rx="8" fill="#131418"/>
<path d="M20 32.5C26.9038 32.5 32.5 26.9038 32.5 20C32.5 13.0963 26.9038 7.5 20 7.5C13.0963 7.5 7.5 13.0963 7.5 20C7.5 26.9038 13.0963 32.5 20 32.5Z" stroke="#F4CE14" stroke-width="1.5" stroke-linecap="round" stroke-linejoin="round"/>
<path d="M23.75 15.625C22.8937 14.7687 21.3862 14.1738 20 14.1363M20 14.1363C18.35 14.0913 16.875 14.8375 16.875 16.875C16.875 20.625 23.75 18.75 23.75 22.5C23.75 24.6387 21.92 25.5575 20 25.4888M20 14.1363V11.875M16.25 23.75C17.055 24.825 18.5538 25.4375 20 25.4888M20 25.4888V28.125" stroke="#F4CE14" stroke-width="1.5" stroke-linecap="round" stroke-linejoin="round"/>
</svg>
