<svg width="40" height="40" viewBox="0 0 40 40" fill="none" xmlns="http://www.w3.org/2000/svg">
<rect width="40" height="40" rx="8" fill="#222236"/>
<path d="M19.9999 31.6667C26.4434 31.6667 31.6666 26.4435 31.6666 20C31.6666 13.5565 26.4434 8.33337 19.9999 8.33337C13.5564 8.33337 8.33325 13.5565 8.33325 20C8.33325 26.4435 13.5564 31.6667 19.9999 31.6667Z" stroke="#F4CE14" stroke-width="1.5" stroke-linecap="round" stroke-linejoin="round"/>
<path d="M23.5 15.9167C22.7008 15.1176 21.2938 14.5622 20 14.5272M20 14.5272C18.46 14.4852 17.0833 15.1817 17.0833 17.0834C17.0833 20.5834 23.5 18.8334 23.5 22.3334C23.5 24.3296 21.792 25.1871 20 25.1229M20 14.5272V12.4167M16.5 23.5001C17.2513 24.5034 18.6502 25.0751 20 25.1229M20 25.1229V27.5834" stroke="#F4CE14" stroke-width="1.5" stroke-linecap="round" stroke-linejoin="round"/>
</svg>
